<svg xmlns="http://www.w3.org/2000/svg" width="26" height="26" fill="none">
  <path fill="#F9572E" fill-rule="evenodd" d="M25 13.4323C24.9922 6.5693 19.4306 1.0078 12.5677 1a.671.671 0 0 0-.671.671.671.671 0 0 0 .671.6711c6.1223.0069 11.0837 4.9683 11.0905 11.0905a.6711.6711 0 0 0 1.0065.5808.6707.6707 0 0 0 .3353-.5811Zm-6.239 11.545a11.0711 11.0711 0 0 1-3.3182-.5801 21.2176 21.2176 0 0 1-8.3696-5.4498C2.8592 14.7329 1.0426 11.4885 1 8.0978a.6709.6709 0 0 1 .6625-.6793h.0086a.671.671 0 0 1 .6707.6625c.0381 3.0079 1.7369 5.974 5.6805 9.9176 6.042 6.0423 10.8252 5.6493 11.0772 5.6235a5.0208 5.0208 0 0 0 1.234-.311 4.8324 4.8324 0 0 0 1.2034-.6813.7031.7031 0 0 1 .0996-.0649l.8231-.806c.4298-.4112.4486-1.0918.0422-1.5261l-3.3653-3.3653c-.4349-.4061-1.1161-.3853-1.5254.0467l-1.696 1.6957a.6714.6714 0 0 1-.7981.1133 41.0475 41.0475 0 0 1-.3391-.1888 16.553 16.553 0 0 1-7.2897-7.2897l-.034-.0611a21.524 21.524 0 0 0-.148-.2646.6708.6708 0 0 1 .1086-.8077l1.697-1.696c.4325-.4097.4527-1.0918.0453-1.5265L5.7915 3.5222a1.0083 1.0083 0 0 0-.7404-.2918 1.1374 1.1374 0 0 0-.7789.332l-.8935.9487a4.6846 4.6846 0 0 0-.4448.6978.671.671 0 0 1-1.19-.6202c.1699-.3272.3696-.638.5965-.9285a.7192.7192 0 0 1 .0395-.046l.9226-.9797.0141-.0144a2.4723 2.4723 0 0 1 1.709-.7311 2.3348 2.3348 0 0 1 1.7143.6844l3.366 3.3667c.9305.9587.9102 2.4895-.0453 3.4232l-1.339 1.3387a15.1345 15.1345 0 0 0 6.6025 6.6005l1.338-1.3377c.9334-.9548 2.4627-.9759 3.4222-.0474l3.367 3.3673c.9291.9596.9093 2.4892-.0443 3.4243l-.0055.0055-.9611.9412a.6698.6698 0 0 1-.2327.1487 6.1332 6.1332 0 0 1-1.3871.7568 6.3616 6.3616 0 0 1-1.5669.3937l-.009.001a4.7622 4.7622 0 0 1-.4837.0214ZM13.0836 5.3641c4.1691.0047 7.5476 3.3832 7.5523 7.5523a.6706.6706 0 0 1-.3346.5832.671.671 0 0 1-1.0072-.5829c-.004-3.4283-2.7822-6.2065-6.2105-6.2105a.671.671 0 0 1-.671-.671.671.671 0 0 1 .671-.671Z" clip-rule="evenodd"/>
  <path fill="#F9572E" d="m12.5677 1 .0003-.25h-.0003V1ZM25 13.4323l.25-.0001v-.0002l-.25.0003ZM12.5677 2.3421l.0003-.25h-.0003v.25Zm11.0905 11.0905h.25v-.0002l-.25.0002Zm.3356.581-.1249.2165.1249-.2165Zm.6709-.0002-.125-.2165.125.2165Zm-9.2219 10.3838-.0833.2357.0033.0012.08-.2369Zm3.3182.5801-.0051.25h.0035l.0016-.25ZM7.0732 18.9474l.182-.1716-.0052-.0052-.1768.1768ZM1 8.0978l.25-.0031-.25.0031Zm.1906-.4769-.179-.1745.179.1745Zm.472-.2024v-.25h-.0032l.0031.25Zm.0085 0 .0001-.25v.25Zm.6707.6625.25-.0032-.25.0032Zm5.6805 9.9176.1768-.1768-.1768.1768Zm11.0772 5.6235.0254.2488.0044-.0006-.0298-.2482Zm1.234-.311-.0908-.2329-.0006.0002.0914.2327Zm1.2034-.6813.1531.1976.0005-.0004-.1536-.1972Zm.0996-.0649.1183.2202.0312-.0168.0254-.0248-.1749-.1786Zm.8231-.806-.1729-.1807-.002.0021.1749.1786Zm.0422-1.5261.1826-.1709-.0058-.0059-.1768.1768Zm-3.3653-3.3653.1769-.1768-.0062-.0059-.1707.1827Zm-1.5254.0467.1768.1769.0047-.0049-.1815-.172Zm-1.696 1.6957.1767.1769.0001-.0001-.1768-.1768Zm-.7981.1133-.1205.219h.0001l.1204-.219Zm-.3391-.1888.1229-.218-.0099-.0051-.113.2231Zm-7.2897-7.2897.2232-.113-.0047-.0086-.2185.1216Zm-.034-.0611-.2188.1209.0004.0007.2184-.1216Zm-.148-.2646.2172-.124v-.0001l-.2171.1241Zm.1086-.8077.1766.1769v-.0001l-.1766-.1768Zm1.697-1.696-.172-.1816-.0048.0047.1768.1769Zm.0453-1.5265.1825-.171-.0057-.0057-.1768.1767ZM5.7915 3.5222l.1768-.1768-.0008-.0008-.176.1776Zm-.7404-.2918.0053.25h.0022l-.0075-.25Zm-.7789.332-.1766-.1771-.0054.0057.182.1714Zm-.8935.9487-.182-.1714-.0085.009-.0076.01.1981.1524Zm-.4448.6978.2217.1156.0001-.0003-.2218-.1153Zm-.5661.3603-.0108-.2498.0108.2498Zm-.624-.9805.2217.1155.0002-.0003-.2219-.1152Zm.5966-.9285-.1969-.1541-.0001.0002.197.1539Zm.0395-.046-.182-.1714-.0011.0012.183.1702Zm.9226-.9797L3.1236 2.46l-.003.0032.182.1714Zm.0141-.0144-.1775-.176-.0013.0014.1788.1746Zm1.709-.7311.0048.25.0019-.0001-.0066-.25Zm1.7143.6844-.177.1767.0002.0001.1768-.1768Zm3.366 3.3667.1794-.1742-.0026-.0026-.1768.1768Zm-.0453 3.4232-.1748-.1788-.002.002.1768.1768Zm-1.339 1.3387-.1768-.1768-.1286.1286.0827.1619.2227-.1137Zm6.6025 6.6005-.1136.2227.1618.0825.1285-.1285-.1767-.1767Zm1.338-1.3377.1767.1768.002-.002-.1787-.1748Zm3.4222-.0474.1768-.1768-.0029-.0028-.1739.1796Zm3.367 3.3673.1796-.1739-.0028-.0028-.1768.1767Zm-.0443 3.4243-.175-.1785-.0018.0018.1768.1767Zm-.0055.0055.175.1787.0018-.0019-.1768-.1768Zm-.9611.9412-.1749-.1786-.0002.0002.1751.1784Zm-.2327.1487-.0882-.234-.0316.0119-.0272.0199.147.2022Zm-1.3871.7568-.0905-.233-.0007.0003.0912.2327Zm-1.5669.3937.0278.2485.0018-.0002-.0296-.2483Zm-.009.001.0237.249.0042-.0005-.0279-.2485Zm1.3912-12.0395-.25.0003v.0007l.25-.001Zm-7.5523-7.5523.0003-.25h-.0003v.25Zm7.2177 8.1355-.1253-.2163.1253.2163Zm-.6723.0002.1252-.2164-.1252.2164Zm-.3349-.5831.25.0009v-.0012l-.25.0003Zm-6.2105-6.2105.0003-.25h-.0003v.25ZM12.5674 1.25c6.7251.0076 12.175 5.4575 12.1826 12.1826l.5-.0006C25.242 6.4312 19.5688.758 12.568.75l-.0006.5Zm-.4207.421a.421.421 0 0 1 .421-.421v-.5a.921.921 0 0 0-.921.921h.5Zm.421.4211a.421.421 0 0 1-.421-.421h-.5a.921.921 0 0 0 .921.921v-.5Zm11.3405 11.3403c-.007-6.2602-5.0801-11.3332-11.3402-11.3403l-.0006.5c5.9845.0067 10.8341 4.8564 10.8408 10.8408l.5-.0005Zm.2106.3646a.4209.4209 0 0 1-.2106-.3644l-.5.0001a.9209.9209 0 0 0 .4607.7974l.2499-.4331Zm.4209-.0001a.4208.4208 0 0 1-.4209.0001l-.2499.4331a.9212.9212 0 0 0 .9209-.0002l-.2501-.433Zm.2103-.3645a.4207.4207 0 0 1-.2103.3645l.2501.433a.921.921 0 0 0 .4602-.7977l-.5.0002Zm-9.3872 11.2017a11.3219 11.3219 0 0 0 3.3931.5931l.0102-.4998a10.8234 10.8234 0 0 1-3.2433-.567l-.16.4737Zm-8.4715-5.5152a21.4676 21.4676 0 0 0 8.4682 5.514l.1666-.4714a20.9676 20.9676 0 0 1-8.271-5.3856l-.3638.343ZM.7501 8.1009c.0438 3.4904 1.9183 6.7948 6.1463 11.0232l.3536-.3535c-4.2001-4.2005-5.9587-7.385-6-10.676l-.5.0063Zm.2615-.6545a.921.921 0 0 0-.2615.6545l.5-.0062a.421.421 0 0 1 .1195-.2992l-.358-.3491Zm.6478-.2779a.9209.9209 0 0 0-.6478.2779l.358.349a.421.421 0 0 1 .296-.127l-.0062-.4999Zm.0117 0h-.0086v.5h.0086v-.5Zm.9207.9093a.921.921 0 0 0-.9206-.9093l-.0002.5a.421.421 0 0 1 .4208.4157l.5-.0064Zm5.6073 9.744c-3.9328-3.9328-5.5705-6.8383-5.6073-9.744l-.5.0063c.0394 3.1102 1.7993 6.1369 5.7538 10.0913l.3535-.3536Zm10.875 5.5516c-.186.019-4.8921.4317-10.875-5.5516l-.3535.3536c6.101 6.1013 10.9613 5.7279 11.2793 5.6954l-.0508-.4974Zm1.168-.295a4.764 4.764 0 0 1-1.1725.2955l.0597.4964a5.2695 5.2695 0 0 0 1.2955-.3264l-.1827-.4655Zm1.1418-.6463a4.581 4.581 0 0 1-1.1412.6461l.1815.4659a5.0793 5.0793 0 0 0 1.2658-.7167l-.3061-.3953Zm.1342-.0874a.9557.9557 0 0 0-.1348.0878l.3072.3945a.4573.4573 0 0 1 .0643-.0419l-.2367-.4404Zm.7666-.7644-.8232.806.3499.3572.8231-.806-.3498-.3572Zm.0345-1.1767a.8356.8356 0 0 1-.0324 1.1747l.3456.3612c.5288-.5059.552-1.3431.0519-1.8775l-.3651.3416Zm-3.3594-3.3593 3.3652 3.3653.3536-.3536-3.3653-3.3652-.3535.3535Zm-1.1672.0419a.833.833 0 0 1 1.1733-.0359l.3413-.3655c-.5354-.4999-1.3738-.4742-1.8776.0575l.363.3439Zm-1.7007 1.7005 1.696-1.6957-.3535-.3536-1.696 1.6957.3535.3536Zm-1.0953.1555a.9213.9213 0 0 0 1.0952-.1554l-.3534-.3538a.4213.4213 0 0 1-.5009.0711l-.2409.4381Zm-.3415-.1901c.119.0672.2324.1301.3414.1901l.2411-.438a38.3903 38.3903 0 0 1-.3369-.1876l-.2456.4355Zm-7.3899-7.3945a16.8026 16.8026 0 0 0 7.3998 7.3998l.2259-.4461a16.3022 16.3022 0 0 1-7.1796-7.1795l-.4461.2258Zm-.0294-.0524.034.0611.4369-.2432-.034-.0611-.437.2432Zm-.1466-.2623c.0474.0831.0957.1703.1462.2616l.4376-.2418a22.2645 22.2645 0 0 0-.1496-.2677l-.4342.2479Zm.149-1.1086a.9207.9207 0 0 0-.149 1.1087l.4341-.2481a.4209.4209 0 0 1 .068-.5067l-.3532-.3539ZM8.935 8.2384l-1.697 1.696.3535.3537 1.697-1.696-.3535-.3537Zm.0397-1.1786a.8327.8327 0 0 1-.0349 1.174l.3439.363c.5324-.5043.5573-1.344.0558-1.879l-.3648.342Zm-3.36-3.3609 3.3656 3.3667.3536-.3535-3.3656-3.3667-.3536.3535Zm-.556-.2186a.7583.7583 0 0 1 .5568.2194l.352-.355a1.2584 1.2584 0 0 0-.924-.3641l.0151.4997Zm-.6099.259a.8874.8874 0 0 1 .6076-.259l-.0107-.4998a1.3874 1.3874 0 0 0-.95.4049l.3531.354Zm-.888.9432.8934-.9487-.364-.3428-.8935.9487.364.3428Zm-.405.6417a4.434 4.434 0 0 1 .421-.6606l-.3962-.305a4.9336 4.9336 0 0 0-.4686.7351l.4437.2305Zm-.7772.4948a.921.921 0 0 0 .777-.4945l-.4434-.2311a.421.421 0 0 1-.3552.226l.0216.4996Zm-.8168-.4257a.921.921 0 0 0 .8168.4257l-.0216-.4996a.421.421 0 0 1-.3733-.1945l-.4219.2684Zm-.0397-.9202a.921.921 0 0 0 .0397.9202l.4219-.2684a.421.421 0 0 1-.0182-.4207l-.4434-.231Zm.6213-.9668a6.261 6.261 0 0 0-.6214.9671l.4437.2306a5.7593 5.7593 0 0 1 .5717-.89l-.394-.3077Zm.0534-.0623a.9704.9704 0 0 0-.0533.062l.3938.3083a.4719.4719 0 0 1 .0257-.0299l-.3662-.3404Zm.9238-.9809-.9227.9797.364.3428.9226-.9797-.364-.3428Zm.0171-.0176-.014.0144.3577.3493.0141-.0144-.3577-.3493ZM5.021 1.639a2.7223 2.7223 0 0 0-1.8819.8051l.355.352a2.2223 2.2223 0 0 1 1.5363-.6572L5.021 1.639Zm1.8958.7578a2.5847 2.5847 0 0 0-1.8978-.7577l.0133.4998a2.0848 2.0848 0 0 1 1.5306.6112l.354-.3533Zm3.3659 3.3665-3.366-3.3666-.3536.3535 3.366 3.3666.3536-.3535Zm-.0474 3.7788c1.054-1.03 1.0764-2.7186.05-3.7761l-.3588.3482c.8345.8599.8164 2.2328-.0407 3.0703l.3495.3576Zm-1.337 1.3367 1.339-1.3387-.3535-.3536-1.339 1.3387.3535.3536Zm6.5394 6.201a14.8846 14.8846 0 0 1-6.4935-6.4914l-.4453.2273a15.3843 15.3843 0 0 0 6.7116 6.7095l.2272-.4454Zm1.0476-1.2918-1.338 1.3377.3535.3535 1.338-1.3376-.3535-.3536Zm3.7729-.0502c-1.0584-1.0242-2.7453-1.0009-3.7749.0522l.3575.3496c.8372-.8564 2.209-.8754 3.0696-.0425l.3478-.3593Zm3.3699 3.3702-3.367-3.3673-.3536.3535 3.367 3.3673.3536-.3535Zm-.046 3.7795c1.0517-1.0314 1.0735-2.7184.0488-3.7767l-.3592.3478c.8335.8608.8157 2.233-.0397 3.072l.3501.3569Zm-.0038.0038.0055-.0055-.3536-.3535-.0054.0055.3535.3535Zm-.963.943.9612-.9412-.3499-.3572-.9611.9412.3498.3572Zm-.3194.204a.9193.9193 0 0 0 .3196-.2041l-.3502-.3569a.4192.4192 0 0 1-.1458.0931l.1764.4679Zm-1.3848.756a6.3874 6.3874 0 0 0 1.4436-.7877l-.294-.4044a5.8894 5.8894 0 0 1-1.3306.726l.181.4661Zm-1.6278.4089a6.608 6.608 0 0 0 1.6285-.4092l-.1824-.4655a6.1149 6.1149 0 0 1-1.5054.3782l.0593.4965Zm-.0107.0012.0089-.001-.0557-.4969-.0089.001.0557.4969Zm-.5132.0229a5.0299 5.0299 0 0 0 .509-.0225l-.0473-.4977a4.5573 4.5573 0 0 1-.4585.0202l-.0032.5Zm2.1265-12.3112c-.0049-4.3069-3.4951-7.7971-7.802-7.802l-.0006.5c4.0312.0046 7.298 3.2714 7.3026 7.3026l.5-.0006Zm-.4592.7999a.9211.9211 0 0 0 .4592-.8006l-.5.002a.421.421 0 0 1-.2099.3659l.2507.4327Zm-.923.0002a.921.921 0 0 0 .923-.0003l-.2507-.4326a.4208.4208 0 0 1-.4218.0001l-.2505.4328Zm-.4596-.8004a.9208.9208 0 0 0 .4596.8004l.2505-.4328a.4209.4209 0 0 1-.2101-.3658l-.5-.0018Zm-5.9608-5.9596c3.2905.0039 5.957 2.6704 5.9608 5.9608l.5-.0006c-.0041-3.5661-2.894-6.456-6.4602-6.4602l-.0006.5Zm-.9207-.921a.921.921 0 0 0 .921.921v-.5a.421.421 0 0 1-.421-.421h-.5Zm.921-.921a.921.921 0 0 0-.921.921h.5a.421.421 0 0 1 .421-.421v-.5Z"/>
</svg>
