<svg xmlns="http://www.w3.org/2000/svg" width="46" height="69" fill="none">
  <g fill="#63D2C1">
    <path d="M.4625 61.764c.0031.9685.7866 1.7534 1.7552 1.7583l9.7859.017c.9678-.0009 1.7527-.7844 1.7552-1.7522V6.6769c-.0028-.9682-.787-1.7524-1.7552-1.7553H2.2177c-.9682.0029-1.7524.787-1.7552 1.7553V61.764Z"/>
    <path fill-rule="evenodd" d="M16.884.5224a1.4176 1.4176 0 0 1 1.2199-.2952l25.6313 4.6313a2.185 2.185 0 0 1 1.7264 2.0673l-.0281 54.699a2.185 2.185 0 0 1-1.7285 2.0656l-25.6007 4.5982a1.4197 1.4197 0 0 1-1.7277-1.445V1.6703a1.4177 1.4177 0 0 1 .5074-1.148Zm23.6276 60.4943a2.1848 2.1848 0 0 0 1.7285-2.0655l.0228-49.3552a2.185 2.185 0 0 0-1.7265-2.0674L21.3 4.053a1.4174 1.4174 0 0 0-1.7272 1.4432v57.5251a1.4194 1.4194 0 0 0 1.7276 1.445l19.2112-3.4496Z" clip-rule="evenodd"/>
    <path d="M24.7297 34.2571c-.2441.9165-1.1484 1.4943-2.0827 1.3306-.9342-.1638-1.5882-1.0146-1.506-1.9595.0822-.945.8732-1.6702 1.8217-1.6702 1.1123.165 1.8938 1.1818 1.767 2.2991Z"/>
  </g>
</svg>
