<svg xmlns="http://www.w3.org/2000/svg" width="200" height="55" fill="none">
  <path fill="url(#a)" d="M106.15 9.306 94.95.246 72.774 18.104 61.081 8.688l-11.199 9.019 22.87 18.418.022-.017.021.017L106.15 9.306Z"/>
  <path fill="url(#b)" d="M72.774 54.585 49.882 36.109V17.707l22.892 18.401v18.477Z"/>
  <path fill="url(#c)" d="M106.15 27.781 72.774 54.585V36.109L106.15 9.306v18.475Z"/>
  <path fill="#231F20" d="M.0001 18.3725h10.5403v2.896h-7.288v4.1068h6.7657v2.896H3.2525v6.7183H0V18.3725ZM13.5313 32.0936h4.2016V21.2685h-4.2016v-2.896h11.6798v2.896h-4.2256v10.8251h4.2256v2.8961H13.5313v-2.8961ZM32.3087 26.4673l-4.7-8.0948h3.798l2.4212 4.51.5462 1.2111.5223-1.2111 2.4689-4.51h3.6794l-4.7714 8.1187 4.914 8.4985h-3.7984l-2.5399-4.7478-.641-1.282-.6171 1.282-2.6587 4.7478h-3.6797l5.0562-8.5224Z"/>
  <path fill="#231F20" fill-rule="evenodd" d="M116.475 18.2418c-.799.0714-1.531.1702-2.196.2965v16.4514h3.252v-5.7211c.13.0223.261.0382.392.0474.182.016.368.0279.558.0354.19.0082.372.0123.546.0123h.38a8.8543 8.8543 0 0 0 2.385-.3206 5.8881 5.8881 0 0 0 2.054-1.0208 5.1672 5.1672 0 0 0 1.448-1.7805 5.7046 5.7046 0 0 0 .546-2.5992 5.5455 5.5455 0 0 0-.629-2.8132 4.69 4.69 0 0 0-1.626-1.6856 6.1887 6.1887 0 0 0-2.244-.8072 15.5465 15.5465 0 0 0-2.48-.2016 26.7508 26.7508 0 0 0-2.386.1068Zm1.745 2.7299c.285-.0239.585-.0358.902-.0358a6.184 6.184 0 0 1 1.211.1187c.376.072.735.2172 1.056.4275.311.2088.568.4898.748.8191.203.3998.301.8452.284 1.2936a3.239 3.239 0 0 1-.296 1.4956 2.288 2.288 0 0 1-.796.8905c-.343.218-.726.3671-1.127.439a6.8018 6.8018 0 0 1-1.27.1184h-.297c-.134 0-.273-.0034-.415-.0116a6.041 6.041 0 0 1-.404-.0355 2.4918 2.4918 0 0 1-.285-.0477v-5.3889c.174-.0317.404-.0594.689-.0829Z" clip-rule="evenodd"/>
  <path fill="#231F20" d="M128.451 18.3725h10.896v2.896h-7.644v3.8693h7.051v2.896h-7.051v4.0598h7.763v2.896h-11.015V18.3725ZM151.549 26.1351l.119-2.5877h-.143l-2.659 4.3443h-.569l-2.778-4.3443h-.119l.143 2.3263v9.116h-3.086V18.3725h3.3l2.848 4.6052h.095l2.825-4.6052h3.276v16.6172h-3.252v-8.8546Z"/>
  <path fill="#231F20" fill-rule="evenodd" d="M157.697 23.049a15.9543 15.9543 0 0 0-.38 3.6319 17.036 17.036 0 0 0 .333 3.4897 7.839 7.839 0 0 0 1.08 2.7302 5.2614 5.2614 0 0 0 1.946 1.7802 6.0974 6.0974 0 0 0 2.909.641 5.3085 5.3085 0 0 0 4.712-2.2909 11.2007 11.2007 0 0 0 1.555-6.3502 16.4962 16.4962 0 0 0-.345-3.4897 8.0105 8.0105 0 0 0-1.092-2.7299 5.2834 5.2834 0 0 0-1.934-1.7805 6.8063 6.8063 0 0 0-5.662-.0474 5.3161 5.3161 0 0 0-1.959 1.6972 7.7218 7.7218 0 0 0-1.163 2.7184Zm3.146 5.8873a22.0608 22.0608 0 0 1-.107-2.2554 11.9084 11.9084 0 0 1 .593-4.2965 2.2249 2.2249 0 0 1 2.256-1.4485 2.3363 2.3363 0 0 1 1.519.4633c.395.3304.694.7608.866 1.2462.212.5885.34 1.2038.38 1.8279.056.6966.083 1.4325.083 2.2076.007.8525-.037 1.7045-.13 2.5518a5.982 5.982 0 0 1-.463 1.7925 2.403 2.403 0 0 1-.879 1.0565 2.5359 2.5359 0 0 1-1.376.3443 2.2895 2.2895 0 0 1-1.484-.451 2.8419 2.8419 0 0 1-.855-1.2227 7.0694 7.0694 0 0 1-.403-1.816Z" clip-rule="evenodd"/>
  <path fill="#231F20" d="M181.223 28.0339h-5.366v6.9558h-3.252V18.3725h3.252v6.7654h5.366v-6.7654h3.252v16.6172h-3.252v-6.9558ZM189.175 32.3782h2.706V20.9836h-2.279v2.8725h-2.611v-5.4836H200v5.4836h-2.611v-2.8725h-2.255v11.3946h2.682v2.6115h-8.641v-2.6115Z"/>
  <defs>
    <linearGradient id="a" x1="49.8587" x2="49.7741" y1=".0818" y2="36.089" gradientUnits="userSpaceOnUse">
      <stop stop-color="#E07053"/>
      <stop offset="1" stop-color="#FF8363"/>
    </linearGradient>
    <linearGradient id="b" x1="38.0412" x2="79.3601" y1="45.2085" y2="69.8052" gradientUnits="userSpaceOnUse">
      <stop stop-color="#FF6640"/>
      <stop offset="1" stop-color="#D94B27"/>
    </linearGradient>
    <linearGradient id="c" x1="79.2852" x2="28.3639" y1="-11.9556" y2="31.7379" gradientUnits="userSpaceOnUse">
      <stop stop-color="#EB4015"/>
      <stop offset="1" stop-color="#D94B27"/>
    </linearGradient>
  </defs>
</svg>
