<svg xmlns="http://www.w3.org/2000/svg" width="32" height="22" fill="none">
  <g fill="#F9572E">
    <path fill-rule="evenodd" d="M31.234 3.5553a2.4713 2.4713 0 0 0-.657-1.6625.0897.0897 0 0 1-.0155-.0278c-.0071-.0071-.0174-.0097-.0252-.0175a2.5125 2.5125 0 0 0-1.8235-.783H3.7546a2.5228 2.5228 0 0 0-1.8261.783c-.0078.0078-.0175.0104-.0227.02a.0885.0885 0 0 0-.0149.0279 2.453 2.453 0 0 0-.6569 1.6599V18.238a2.454 2.454 0 0 0 .6848 1.6948.1671.1671 0 0 0 .02.0304c.0026.0025.0077.0025.0097.0071a2.519 2.519 0 0 0 1.806.7604h24.9583c.6802 0 1.3315-.275 1.806-.7624l.0103-.0051c.0071-.0078.0097-.0201.02-.0278a2.4682 2.4682 0 0 0 .6848-1.6974l.0001-14.6828Zm-9.8209 6.567 8.646-7.1684c.0871.1886.1328.3936.1339.6014V18.238a1.477 1.477 0 0 1-.1086.5503l-8.6713-8.6661Zm7.2997-8.0297c.2101.0003.4176.045.6092.1312l-13.0896 10.851L3.1461 2.2238a1.4852 1.4852 0 0 1 .6085-.1312h24.9582ZM2.3831 18.7884a1.4398 1.4398 0 0 1-.1113-.5503V3.5553c.0011-.208.0477-.4133.1365-.6014l8.6466 7.1684-8.6718 8.6661Zm1.3715.9143a1.503 1.503 0 0 1-.6641-.1617l8.7623-8.7572 4.0466 3.3547a.5199.5199 0 0 0 .6666 0l4.0492-3.3547 8.7617 8.7572a1.4998 1.4998 0 0 1-.6641.1617H3.7546Z" clip-rule="evenodd"/>
    <path d="M31.234 3.5553h.35V3.553l-.35.0023Zm-.657-1.6625-.2703.2223.0065.0078.0069.0075.2569-.2376Zm-.0155-.0278.3312-.1133-.0263-.0768-.0574-.0574-.2475.2475Zm-.0252-.0175-.254.241.0064.0063.2476-.2473Zm-1.8235-.783v.35h.0002l-.0002-.35Zm-24.9582 0v-.35h-.0002l.0002.35Zm-1.8261.783.2481.247.0053-.0056-.2534-.2414Zm-.0227.02.274.2178.02-.025.015-.0282-.309-.1645Zm-.0149.0279.2563.2384.0529-.0569.0238-.0738-.333-.1077ZM1.234 3.5553l-.35-.0016v.0015h.35Zm0 14.6828h-.35v.0008l.35-.0008Zm.6848 1.6948.3118-.1589-.0235-.0463-.036-.0374-.2523.2426Zm.02.0304-.2693.2235.0112.0135.0125.0124.2456-.2494Zm.0097.0071-.3219.1375.0257.0601.0456.0467.2506-.2443Zm1.806.7604v-.35H3.754l.0004.35Zm24.9583 0v.35-.35Zm1.806-.7624-.1563-.3131-.0531.0265-.0414.0425.2508.2441Zm.0103-.0051.1563.3132.0583-.0291.0439-.0482-.2585-.2359Zm.02-.0278.2106.2795.0227-.0171.0196-.0205-.2529-.2419Zm.6848-1.6974.35.0012v-.0012h-.35Zm-9.8208-8.1158-.2233-.2694-.2959.2453.2718.2717.2474-.2476Zm8.646-7.1684.3178-.1467-.1908-.4133-.3503.2906.2233.2694Zm.1339.6014h.35v-.002l-.35.002Zm0 14.6828.35.0012v-.0012h-.35Zm-.1086.5503-.2474.2475.373.3728.1986-.4885-.3242-.1318ZM28.7128 2.0926l.0006-.35h-.0006v.35Zm.6092.1312.2233.2695.4322-.3582-.5119-.2304-.1436.3191Zm-13.0896 10.851-.2234.2695.2234.1852.2234-.1852-.2234-.2695ZM3.1461 2.2238l-.144-.319-.5111.2305.4317.358.2234-.2695Zm.6085-.1312v-.35H3.754l.0005.35ZM2.383 18.7884l-.323.1349.2012.4816.3692-.369-.2474-.2475Zm-.1113-.5503h-.35v.0011l.35-.0011Zm0-14.6828-.35-.0018v.0017h.35Zm.1365-.6014.2234-.2694-.3473-.288-.1926.408.3165.1494Zm8.6466 7.1684.2474.2476.2719-.2717-.2959-.2453-.2234.2694Zm-7.3003 9.5804-.0033.35h.0033v-.35Zm-.6641-.1617-.2474-.2475-.342.3417.4314.2181.158-.3123Zm8.7623-8.7572.2234-.2694-.2453-.2034-.2255.2253.2474.2475Zm4.0466 3.3547.2244-.2686-.001-.0008-.2234.2694Zm.6666 0-.2232-.2695-.0011.0009.2243.2686Zm4.0492-3.3547.2474-.2475-.2253-.2253-.2454.2033.2233.2695Zm8.7617 8.7572.1581.3123.4311-.2182-.3417-.3416-.2475.2475Zm-.6641.1617v.35h.0032l-.0032-.35ZM31.584 3.553a2.822 2.822 0 0 0-.75-1.8979l-.5139.4753c.3594.3887.5606.8977.5639 1.427l.7-.0044Zm-.7367-1.8826a.2605.2605 0 0 1 .0454.0813l-.6624.2265a.4401.4401 0 0 0 .0764.137l.5406-.4448Zm-.0383-.053a.385.385 0 0 0-.0803-.0614l-.0076-.0044.0028.0016a.3103.3103 0 0 1 .06.047l-.4952.4946a.3931.3931 0 0 0 .0875.066c-.0019-.0012-.0062-.0037-.0117-.0073a.3129.3129 0 0 1-.0505-.041l.495-.495Zm-.0188-.0108a2.8625 2.8625 0 0 0-2.0775-.8921l.0003.7a2.1625 2.1625 0 0 1 1.5694.674l.5078-.482ZM28.7128.7145H3.7546v.7h24.9582v-.7Zm-24.9584 0a2.8728 2.8728 0 0 0-2.0794.8916l.507.4828a2.1728 2.1728 0 0 1 1.5727-.6745l-.0003-.7Zm-2.074.8861a.303.303 0 0 1 .0384-.0327l.0044-.0031-.0023.0016a.38.38 0 0 0-.124.1367l.6179.329c-.0367.0689-.0878.1044-.0978.1114l-.0017.0011c.0012-.0008.0056-.0037.0107-.0074a.3954.3954 0 0 0 .0506-.0429l-.4963-.4937Zm-.0486.0493a.4384.4384 0 0 0-.0738.1377l.666.2155a.2615.2615 0 0 1-.0441.0822l-.548-.4355Zm.0029.007A2.803 2.803 0 0 0 .884 3.5538l.7.0031a2.1029 2.1029 0 0 1 .5632-1.423l-.5125-.4768ZM.884 3.5553v14.6829h.7V3.5553h-.7Zm0 14.6837a2.8036 2.8036 0 0 0 .7824 1.9365l.5047-.4851a2.1035 2.1035 0 0 1-.587-1.453l-.7.0016Zm.723 1.8529a.5116.5116 0 0 0 .0625.095l.5386-.4471a.1882.1882 0 0 1 .0225.0343l-.6237.3178Zm.0862.1209a.3575.3575 0 0 0 .1039.0711l.004.0019c.002.0008-.0028-.0013-.008-.0037a.343.343 0 0 1-.1665-.1741l.6437-.2751a.358.358 0 0 0-.1838-.1863l-.002-.0009a.0022.0022 0 0 1-.0005-.0003h-.0002v-.0001l.0111.0052a.3413.3413 0 0 1 .0894.0635l-.491.4988Zm.0047.002a2.8691 2.8691 0 0 0 2.057.8661l-.0008-.7a2.1689 2.1689 0 0 1-1.555-.6548l-.5012.4887Zm2.0566.8661h24.9583v-.7H3.7545v.7Zm24.9583 0a2.871 2.871 0 0 0 2.0567-.8682l-.5015-.4883a2.1707 2.1707 0 0 1-1.5553.6565l.0001.7Zm1.9622-.7992.0104-.0051-.3125-.6264-.0104.0052.3125.6263Zm.1126-.0824a.3755.3755 0 0 0 .0472-.0639l.0077-.0134c.0018-.0034.0008-.0015.0003-.0007a.3154.3154 0 0 1-.0831.0938l-.4212-.5591c-.0652.0491-.0973.1071-.1055.1216l-.0027.005a.039.039 0 0 1-.0008.0013l-.0003.0005a.3183.3183 0 0 1 .0414-.057l.517.4719Zm.0144-.0218a2.818 2.818 0 0 0 .7819-1.9381l-.7-.0025a2.1176 2.1176 0 0 1-.5877 1.4567l.5058.4839Zm.7819-1.9393.0001-14.6828h-.7l-.0001 14.6828h.7Zm-9.9474-7.8463 8.646-7.1685-.4467-.5388-8.646 7.1684.4467.5389Zm8.1049-7.2912c.0661.1432.1007.2989.1016.4566l.7-.0038a1.8025 1.8025 0 0 0-.1661-.7462l-.6355.2934Zm.1016.4546v14.6829h.7V3.5553h-.7Zm0 14.6816a1.1257 1.1257 0 0 1-.0829.4198l.6485.2636a1.8271 1.8271 0 0 0 .1344-.6809l-.7-.0025Zm.4888.304-8.6712-8.666-.4949.4951 8.6713 8.666.4948-.4951ZM28.7123 2.4426c.1607.0002.3195.0345.466.1004l.2873-.6383a1.84 1.84 0 0 0-.7522-.1621l-.0011.7Zm.3863-.4882L16.009 12.8054l.4468.5389 13.0895-10.851-.4467-.539Zm-12.6428 10.851L3.3695 1.9544l-.4468.5389 13.0863 10.851.4468-.5389ZM3.2899 2.5429a1.1351 1.1351 0 0 1 .4651-.1003l-.0009-.7a1.8351 1.8351 0 0 0-.752.1622l.2878.6381Zm.4647-.1003h24.9582v-.7H3.7546v.7ZM2.706 18.6535a1.0897 1.0897 0 0 1-.0842-.4165l-.7.0022c.0008.2349.0478.4673.1383.6841l.646-.2698Zm-.0842-.4154V3.5553h-.7V18.238h.7Zm0-14.681c.0009-.157.036-.3119.103-.4538l-.633-.2988a1.7757 1.7757 0 0 0-.17.749l.7.0035Zm-.4369-.3338 8.6466 7.1685.4468-.5389-8.6466-7.1684-.4468.5388Zm8.6226 6.6515-8.6718 8.666.4948.4951 8.6718-8.666-.4948-.4951Zm-7.0497 9.4779a1.1533 1.1533 0 0 1-.5093-.124l-.316.6246c.254.1285.5342.1967.8188.1994l.0065-.7Zm-.42.4359 8.7625-8.7572-.4949-.4951-8.7623 8.7572.4948.4951Zm8.2917-8.7353 4.0465 3.3547.4468-.5389-4.0466-3.3547-.4467.5389Zm4.0455 3.3538a.87.87 0 0 0 1.1154 0l-.4487-.5372a.17.17 0 0 1-.2179 0l-.4488.5372Zm1.1143.0009 4.0492-3.3547-.4466-.539-4.0491 3.3547.4465.539Zm3.5785-3.3766 8.7617 8.7572.4949-.4951-8.7618-8.7572-.4948.4951Zm8.8511 8.1973a1.15 1.15 0 0 1-.5092.124l.0063.7a1.8506 1.8506 0 0 0 .819-.1994l-.3161-.6246Zm-.5061.124H3.7546v.7h24.9582v-.7Z"/>
  </g>
</svg>
